<?xml version="1.0" encoding="UTF-8"?>
<svg id="Layer_1" data-name="Layer 1" xmlns="http://www.w3.org/2000/svg" viewBox="0 0 479.79 479.81">
  <defs>
    <style>
      .cls-1 {
        fill: #fff;
        stroke-width: 0px;
      }
    </style>
  </defs>
  <path class="cls-1" d="M371.84,479.81H107.97c-.25-.47-.73-.42-1.15-.48-2.95-.42-5.93-.72-8.86-1.28-5.65-1.1-11.21-2.55-16.67-4.4-12.55-4.26-24.05-10.45-34.53-18.53-12.6-9.72-22.93-21.45-30.88-35.25-6.33-10.98-10.84-22.67-13.46-35.07-.68-3.23-1.06-6.52-1.72-9.75-.72-3.54-.67-7.09-.67-10.66C.03,280.51.03,196.63,0,112.76c0-2.56.24-5.07.64-7.58.18-1.14.24-2.3.45-3.42.57-2.92,1.13-5.84,1.75-8.75,1.08-5.01,2.59-9.88,4.34-14.68,2.15-5.9,4.86-11.55,7.92-17.04,4.56-8.17,10.04-15.67,16.36-22.57,4.34-4.74,9.06-9.09,14.1-13.08,6.97-5.52,14.47-10.2,22.48-14.06,4.49-2.17,9.11-4.06,13.85-5.63,4.24-1.41,8.55-2.6,12.93-3.51,3.26-.68,6.54-1.24,9.84-1.7,2.67-.37,5.33-.71,8.05-.71C197.11.06,281.5.07,365.9,0c4.05,0,8,.56,11.96,1.09,3.68.5,7.34,1.27,10.95,2.18,6.39,1.61,12.61,3.75,18.67,6.37,8.7,3.77,16.85,8.49,24.41,14.19,10.05,7.58,18.76,16.48,26.03,26.77,7.49,10.61,13.21,22.08,16.96,34.53,2.14,7.1,3.64,14.33,4.43,21.71.05.42,0,.9.48,1.14v263.87c-.56.12-.44.61-.48.97-.4,3.77-.99,7.5-1.73,11.21-1.16,5.85-2.77,11.59-4.86,17.18-4.24,11.37-10.01,21.92-17.41,31.56-8.37,10.89-18.28,20.11-29.75,27.66-9.36,6.16-19.4,10.89-30.08,14.24-7.33,2.3-14.84,3.86-22.5,4.65-.42.04-.9,0-1.14.48ZM150.76,200.56c0,.6,0,.99,0,1.38.02,4.16.05,8.31.05,12.47,0,14.95-.02,29.9-.07,44.85,0,1.09.25,1.41,1.38,1.4,16.63-.04,33.26-.03,49.89-.03q1.68,0,1.68,1.67c0,47.45,0,94.91,0,142.36,0,.54-.13,1.11.14,1.67h64.89c0-.56,0-1.03,0-1.51,0-47.53-.01-95.07-.02-142.6,0-1.59,0-1.6,1.54-1.6,15.23,0,30.46,0,45.7,0,.46,0,.96.15,1.44-.2,3.05-19.89,6.11-39.81,9.18-59.86-.63,0-1.1,0-1.57,0-18.31,0-36.62,0-54.93.03-.98,0-1.39-.15-1.39-1.29.05-12.71,0-25.43.05-38.14.01-4.24.58-8.43,1.9-12.48,2.97-9.06,9-15.03,18.08-17.97,4.65-1.51,9.43-2.02,14.28-2.05,8.24-.05,16.47-.04,24.71.01,1.19,0,1.45-.36,1.43-1.48-.09-3.84-.09-7.67-.11-11.51-.02-8.04-.03-16.07-.05-24.11,0-4.36-.03-8.72-.01-13.07,0-.63-.06-1.1-.8-1.2-2.43-.32-4.86-.69-7.3-.98-3.75-.43-7.5-.86-11.25-1.3-3.92-.46-7.85-.67-11.76-1.05-3.93-.38-7.89-.4-11.84-.46-7.3-.11-14.55.24-21.77,1.54-5.99,1.08-11.81,2.66-17.4,5.01-9.63,4.05-18,9.89-24.84,17.87-3.85,4.5-7.07,9.41-9.61,14.74-3.73,7.8-6.05,16.03-7.32,24.6-.9,6.02-1.28,12.06-1.33,18.11-.12,14.63-.04,29.26-.04,43.9,0,.39.12.8-.2,1.27h-52.72Z"/>
</svg>