<?xml version="1.0" encoding="UTF-8"?>
<svg id="Layer_1" data-name="Layer 1" xmlns="http://www.w3.org/2000/svg" viewBox="0 0 479.28 465.73">
  <defs>
    <style>
      .cls-1 {
        fill: #fff;
        stroke-width: 0px;
      }
    </style>
  </defs>
  <path class="cls-1" d="M284.1,344.07c2.93-.41,5.85-.81,8.77-1.24,10.29-1.51,20.42-3.67,30.34-6.84,12.22-3.91,23.51-9.55,33.56-17.57,9.6-7.66,17.23-16.96,22.85-27.88,5.55-10.78,9.02-22.23,11-34.17,1.14-6.87,1.79-13.77,2.13-20.72.3-6.12.36-12.23-.17-18.33-.86-9.96-3.06-19.62-7.04-28.85-4.01-9.29-9.34-17.72-16.13-25.22-.7-.78-.85-1.44-.49-2.45,3.9-11.07,5.02-22.46,3.93-34.12-.85-9.17-3.01-18.01-6.29-26.6-.32-.84-.73-1.3-1.64-1.45-3.92-.61-7.82-.31-11.7.32-11.7,1.91-22.4,6.58-32.79,12.06-6.72,3.55-13.18,7.53-19.47,11.78-.6.4-1.14.45-1.79.27-8.47-2.39-17.09-4.06-25.77-5.43-6.79-1.07-13.63-1.64-20.5-1.99-7.15-.36-14.31-.47-21.46-.18-9.14.37-18.25,1.22-27.29,2.7-7.57,1.24-15.05,2.88-22.47,4.82-.9.23-1.62.17-2.45-.38-10.34-6.85-21.05-13.04-32.53-17.81-6.73-2.8-13.67-4.95-20.89-6.02-3.4-.5-6.84-.69-10.27-.19-.76.11-1.19.41-1.48,1.15-2.84,7.2-4.82,14.62-5.95,22.28-.77,5.24-1.09,10.49-.88,15.77.33,8.07,1.59,15.97,4.49,23.54.27.72.05,1.11-.38,1.58-6.22,6.86-11.28,14.49-15.2,22.87-3.7,7.9-6.13,16.17-7.5,24.79-1.64,10.34-1.34,20.72-.59,31.09.8,11.22,2.67,22.28,6.16,33.01,3.54,10.92,8.61,21.04,15.74,30.09,6.87,8.71,15.18,15.72,24.73,21.32,8.25,4.83,17.03,8.37,26.18,11.09,7.75,2.3,15.62,4,23.6,5.23,3.55.54,7.1,1.1,10.68,1.46.33.03.72.02,1.03.43-1.74,1.58-3.31,3.32-4.73,5.18-3.9,5.11-6.53,10.86-8.29,17.02-.8,2.81-1.42,5.65-1.79,8.55-.08.63-.29.99-.9,1.25-9.44,4.09-19.22,6.47-29.58,5.85-12.34-.74-22.67-5.8-31.16-14.75-3.96-4.18-6.89-9.09-10.16-13.77-4.66-6.69-10.3-12.41-17.28-16.72-7.55-4.67-15.68-6.11-24.38-4.27-1.21.26-2.39.65-3.33,1.53-.86.81-1.19,1.74-.88,2.92.42,1.6,1.31,2.91,2.44,4.06,2.08,2.12,4.32,4.08,6.95,5.46,5.1,2.66,8.96,6.68,12.36,11.15,5.47,7.17,10.16,14.83,13.74,23.13,1.2,2.78,2.26,5.63,3.82,8.25,5.67,9.55,14.02,15.66,24.42,19.18,6.52,2.21,13.23,3.28,20.09,3.64,8.45.44,16.85-.04,25.19-1.41,2.36-.39,4.72-.71,7.07-1.05.39.4.24.86.24,1.28.05,10.43.09,20.87.15,31.31.02,3.76.09,7.51.14,11.27.1,7.15-4.8,12.04-11.94,12.2-3.39.08-6.44-.96-9.52-2.08-10.03-3.64-19.85-7.77-29.33-12.69-14.9-7.74-28.89-16.89-41.89-27.53-8.49-6.95-16.54-14.36-23.98-22.41-12.83-13.88-23.95-29.01-33.21-45.5-6.2-11.02-11.5-22.45-15.91-34.31-3.28-8.84-5.95-17.87-8.13-27.05-1.92-8.09-3.43-16.25-4.48-24.5-.75-5.94-1.3-11.91-1.58-17.9C.15,246.93,0,242.3,0,237.67c.03-9.48.65-18.92,1.8-28.33,1.83-15.03,5.13-29.74,9.79-44.13,6.24-19.29,14.85-37.47,25.8-54.54,7.83-12.21,16.67-23.63,26.58-34.22,14.05-15.01,29.71-28.09,47.07-39.14,14.11-8.98,29.04-16.28,44.68-22.15,9.8-3.68,19.82-6.71,30.02-9.05,7.55-1.73,15.19-3.02,22.88-4C220.52.59,232.46-.25,244.46.06c8.59.22,17.14.94,25.67,2.02,7.97,1.01,15.87,2.36,23.7,4.16,11.74,2.69,23.2,6.27,34.39,10.71,19.68,7.81,38.03,18.02,54.98,30.7,7.01,5.24,13.7,10.88,20.13,16.83,13.51,12.49,25.3,26.43,35.58,41.66,7.73,11.45,14.38,23.51,19.97,36.14,4.95,11.19,9.12,22.66,12.25,34.5,2.53,9.58,4.54,19.28,5.89,29.1.71,5.1,1.22,10.23,1.57,15.37.56,8.18.85,16.37.59,24.56-.31,9.83-1.19,19.61-2.7,29.33-1.5,9.72-3.63,19.3-6.29,28.76-2.96,10.51-6.68,20.74-11.07,30.73-6.65,15.12-14.81,29.38-24.44,42.79-5.6,7.8-11.68,15.2-18.14,22.3-6.39,7.01-13.17,13.62-20.35,19.81-11.25,9.71-23.34,18.25-36.19,25.72-13.79,8.01-28.26,14.52-43.34,19.68-3.88,1.33-7.87,1-11.5-.97-3.67-2-5.48-5.39-5.52-9.48-.1-10.07,0-20.15.12-30.22.13-10.83.07-21.67.12-32.5.03-6.2-.16-12.4-1.29-18.5-2.01-10.86-5.9-20.81-14.2-28.56-.14-.13-.32-.25-.27-.64h-.02Z"/>
</svg>