<?xml version="1.0" encoding="UTF-8"?>
<svg id="Layer_1" data-name="Layer 1" xmlns="http://www.w3.org/2000/svg" viewBox="0 0 306.95 306.98">
  <defs>
    <style>
      .cls-1 {
        fill: #fff;
        stroke-width: 0px;
      }
    </style>
  </defs>
  <path class="cls-1" d="M0,283.49V23.5c.63.09.66-.3.75-.78.66-3.38,1.87-6.55,3.7-9.47,1.66-2.65,3.66-5,6.15-6.92,1.98-1.53,4.03-2.94,6.4-3.81,2.2-.81,4.4-1.58,6.75-1.82.45-.05.45-.37.46-.7h258.52c-.03.5.21.65.7.73,3.32.49,6.47,1.55,9.38,3.23,2.76,1.6,5.23,3.57,7.28,6.06,2.01,2.45,3.6,5.1,4.73,8.08.65,1.73,1.1,3.49,1.4,5.29.08.47.3.6.69.65,0,2.8.03,5.6.03,8.39-.02,83.97-.04,167.95-.05,251.92-.86.03-.84.76-.94,1.3-.52,2.77-1.69,5.29-3.1,7.67-1.62,2.74-3.61,5.21-6.16,7.19-3.16,2.44-6.55,4.4-10.51,5.3-.68.15-1.68.02-1.86,1.12-7.27.02-14.55.05-21.82.05-75.26,0-150.52,0-225.77,0-4.08,0-8.15-.01-12.23-.02-.04-.47-.28-.67-.78-.69-.51-.02-1.02-.14-1.52-.24-2.1-.43-4.22-.94-6.11-1.88-2.28-1.14-4.43-2.56-6.41-4.26-3.12-2.67-5.34-5.96-7.08-9.6-.94-1.97-1.52-4.09-1.87-6.26-.08-.48-.32-.59-.73-.55ZM243.9,116.24c-.27-.47-.75-.78-1.21-.89-3.03-.72-5.73-2.39-8.86-2.86-2.76-.42-5.47-1.14-8.19-1.77-1.38-.32-2.79-.27-4.16-.33-7.42-.33-14.84-.2-22.14,1.33-2.83.59-5.62,1.43-8.38,2.33-1.46.48-2.76,1.4-4.19,1.98-2.61,1.05-4.94,2.61-7.12,4.29-3.69,2.85-7.11,6.03-9.6,10.08-.29.48-.7,1.13-1.52.88-.25-.47-.12-.96-.14-1.43-.11-3.47.13-6.94-.19-10.41-.37-4.04-4.15-6.76-7.56-6.76-11.75,0-23.5-.02-35.25.02-2.01,0-3.76.79-5.26,2.19-1.88,1.76-2.65,3.91-2.65,6.43,0,47.77,0,95.53,0,143.3,0,.81.12,1.59.25,2.37.35,1.99,1.22,3.8,2.86,4.93,1.38.96,3.06,1.51,4.83,1.51,12.03-.01,24.06-.04,36.09,0,1.55,0,2.81-.66,3.95-1.46,1.09-.77,2.17-1.81,2.5-3.11.37-1.48.63-3.02.63-4.59-.02-24.86,0-49.72-.03-74.59,0-2.65.49-5.24.91-7.82.63-3.83,1.58-7.6,3.22-11.18,1.59-3.47,3.53-6.67,6.2-9.4,2.02-2.07,4.32-3.76,7-4.88,1.1-.46,2.16-1.17,3.31-1.36,2.51-.42,5.06-.84,7.59-.78,4.14.11,8.24.42,12.11,2.45,2.85,1.49,4.91,3.72,7.03,5.91,1.58,1.64,2.32,3.92,3.2,6.03.49,1.17,1.22,2.34,1.35,3.56.19,1.92.97,3.68,1.18,5.6.4,3.63,1.13,7.23,1.12,10.91-.01,25.46.03,50.92-.05,76.39-.01,3.81,3.68,8.47,8.46,8.39,11.71-.2,23.42-.08,35.13-.04,4.93.02,8.54-3.36,8.5-8.29-.24-30.45.57-60.9-.45-91.34-.11-3.36-.6-6.68-1.17-9.95-.64-3.67-.91-7.41-1.92-11.04-.94-3.37-2-6.69-3.18-9.98-.78-2.18-1.91-4.2-2.9-6.28-1.21-2.57-2.81-4.92-4.54-7.11-2.26-2.86-4.67-5.61-7.72-7.76-2.17-1.53-4.24-3.2-6.66-4.35-.62-.3-1.08-1.02-1.91-.82-.16-.1-.32-.19-.48-.29ZM44.31,192.97c0,17.35,0,34.69,0,52.04,0,6.59-.1,13.19.04,19.78.1,4.94,3.48,8.32,8.1,8.39,11.43.19,22.86.08,34.29.04,1.6,0,3.14-.52,4.51-1.4,2.96-1.91,3.8-4.77,3.8-8.13-.03-34.05-.02-68.1-.02-102.15,0-13.15,0-26.3,0-39.45,0-1.36,0-2.77-.51-4.01-1.39-3.37-4.14-5.34-7.79-5.38-11.39-.1-22.78-.06-34.17-.02-2.05,0-3.85.82-5.38,2.23-2.01,1.85-2.87,4.14-2.87,6.82,0,23.74,0,47.48,0,71.22ZM69.52,99.53c18.1-.57,33.07-14.26,32.92-33.19-.15-18.63-14.94-32.66-32.9-32.66-17.16,0-34.3,14.45-32.55,35.61,1.36,16.41,14.71,29.47,32.53,30.24Z"/>
</svg>