<?xml version="1.0" encoding="UTF-8"?>
<svg id="Layer_1" data-name="Layer 1" xmlns="http://www.w3.org/2000/svg" viewBox="0 0 500.01 482.01">
  <defs>
    <style>
      .cls-1 {
        fill: #fff;
        stroke-width: 0px;
      }
    </style>
  </defs>
  <path class="cls-1" d="M500,192.01c-4.95,5.52-10.04,10.92-14.82,16.57-47.09,55.71-94.13,111.47-141.19,167.2-1.26,1.49-2.55,2.95-4.48,5.17-24.83-29.13-49.27-57.79-73.9-86.69,11.41-13.35,22.51-26.34,34-39.78,13.42,15.71,26.46,30.99,39.69,46.49,36.69-43.76,73.15-87.24,109.65-130.78V42.68c-96.26,112.95-191.96,225.24-288.35,338.34-28.73-34.21-57.04-67.92-85.28-101.54v-80.48c28.41,33.86,56.81,67.72,85.55,101.98,18.56-21.8,36.97-43.43,55.63-65.35L51.14,42.59v344.42H0C.05,262.47.05,124.56,0,.01h0c27.78-.05,55.22.05,83,0,.6.56,1.58,1.93,2.11,2.55,45.27,52.84,90.52,105.69,135.78,158.53,9.81,11.46,19.64,22.91,29.6,34.54.96-1.08,1.63-1.81,2.27-2.56,33.47-39.28,66.91-78.58,100.4-117.84C374.32,50.42,396.26,24.79,417.46.01c27.75.04,54.79,0,82.54.04v1.96"/>
  <path class="cls-1" d="M500.01,387.06h-50.2v-99.96c11.82-13.9,24.09-28.34,36.35-42.77,3.66-4.31,10.1-11.18,13.85-15.4h0"/>
  <path class="cls-1" d="M109,482.01v-73.74h23.23c7.02,16.75,14.22,33.94,21.84,52.09,7.53-17.98,14.7-35.11,21.88-52.25h23.51v6.61c0,20.64-.01,41.28.02,61.92l.08,5.36h-19.55v-36.65h0l-15.08,36.65h-21.54c-5.14-12.79-15.38-37.35-15.38-37.35v37.35s-19,0-19,0Z"/>
  <path class="cls-1" d="M220.23,482.01h0c8.72-23.11,19.2-50.87,27.97-73.96h20.37c7.16,18.92,14.35,37.79,21.43,56.69,2.14,5.7,4,11.51,6,17.27h-20c-1.23-4.29-2.47-8.58-3.64-12.64h-27.74c-1.57,4.3-3.1,8.47-4.62,12.64h-19.77ZM250.85,452.99h15.03c-2.46-6.48-4.82-12.69-7.53-19.8-2.69,7.11-5.02,13.25-7.5,19.8Z"/>
  <path class="cls-1" d="M317,482.01c9.28-24.6,18.57-49.2,27.89-73.89h20.38c5.57,14.69,11.17,29.37,16.7,44.09,3.73,9.92,7.36,19.87,11.03,29.81h-20c-1.35-4.31-2.7-8.62-3.98-12.71h-27.31c-1.97,4.38-3.84,8.54-5.71,12.71h-19ZM362.59,452.99c-2.43-6.51-4.75-12.73-7.47-20.03-2.72,7.25-5.06,13.47-7.52,20.03h15Z"/>
</svg>