<svg width="500" height="388" viewBox="0 0 500 388" fill="none" xmlns="http://www.w3.org/2000/svg">
<path d="M500 192.011C495.05 197.531 489.96 202.931 485.18 208.581C438.09 264.291 391.05 320.051 343.99 375.781C342.73 377.271 341.44 378.731 339.51 380.951C314.68 351.821 290.24 323.161 265.61 294.261C277.02 280.911 288.12 267.921 299.61 254.481C313.03 270.191 326.07 285.471 339.3 300.971C375.99 257.211 412.45 213.731 448.95 170.191V42.6805C352.69 155.631 256.99 267.921 160.6 381.021C131.87 346.811 103.56 313.101 75.32 279.481V199.001C103.73 232.861 132.13 266.721 160.87 300.981C179.43 279.181 197.84 257.551 216.5 235.631L51.14 42.5905V387.011H0C0.05 262.471 0.05 124.561 0 0.0105275C27.78 -0.0394725 55.22 0.0605275 83 0.0105275C83.6 0.570528 84.58 1.94053 85.11 2.56053C130.38 55.4005 175.63 108.251 220.89 161.091C230.7 172.551 240.53 184.001 250.49 195.631C251.45 194.551 252.12 193.821 252.76 193.071C286.23 153.791 319.67 114.491 353.16 75.2305C374.32 50.4205 396.26 24.7905 417.46 0.0105275C445.21 0.0505275 472.25 0.0105275 500 0.0505275V2.01053" fill="white"/>
<path d="M500.01 387.06H449.81V287.1C461.63 273.2 473.9 258.76 486.16 244.33C489.82 240.02 496.26 233.15 500.01 228.93" fill="white"/>
</svg>
