<svg width="55" height="55" viewBox="0 0 55 55" fill="none" xmlns="http://www.w3.org/2000/svg">
<circle cx="27.5" cy="27.5" r="25" stroke="#CAA052" stroke-width="5"/>
<circle cx="27.5" cy="27.5" r="16.5" fill="black"/>
<circle cx="27.5" cy="27.5" r="16.5" fill="#CAA052"/>
<path d="M29.25 18C29.25 17.3096 28.6904 16.75 28 16.75C27.3096 16.75 26.75 17.3096 26.75 18H29.25ZM27.1161 37.9506C27.6043 38.4387 28.3957 38.4387 28.8839 37.9506L36.8388 29.9956C37.327 29.5074 37.327 28.716 36.8388 28.2278C36.3507 27.7397 35.5592 27.7397 35.0711 28.2278L28 35.2989L20.9289 28.2278C20.4408 27.7397 19.6493 27.7397 19.1612 28.2278C18.673 28.716 18.673 29.5074 19.1612 29.9956L27.1161 37.9506ZM26.75 18V37.0667H29.25V18H26.75Z" fill="black"/>
</svg>
